<svg width="1280" height="832" viewBox="0 0 1280 832" fill="none" xmlns="http://www.w3.org/2000/svg">
<path d="M415.5 257.5C503.857 257.5 575.5 329.573 575.5 418.5C575.5 507.427 503.857 579.5 415.5 579.5C327.143 579.5 255.5 507.427 255.5 418.5C255.5 329.573 327.143 257.5 415.5 257.5Z" stroke="black" stroke-width="3"/>
<path d="M415.5 295.5C482.862 295.5 537.5 350.776 537.5 419C537.5 487.224 482.862 542.5 415.5 542.5C348.138 542.5 293.5 487.224 293.5 419C293.5 350.776 348.138 295.5 415.5 295.5Z" fill="#FF7F50" stroke="black" stroke-width="3"/>
<g filter="url(#filter0_d_8_2)">
<path d="M330.048 507.345L320.834 339.084M338.056 512.351L361.399 308.26" stroke="black" stroke-width="3"/>
</g>
<line y1="-1.5" x2="237.912" y2="-1.5" transform="matrix(0.336396 -0.941721 0.90656 0.422078 347.076 519.023)" stroke="black" stroke-width="3"/>
<line y1="-1.5" x2="210.296" y2="-1.5" transform="matrix(0.639019 -0.769191 0.70599 0.708222 371.939 526.758)" stroke="black" stroke-width="3"/>
<line y1="-1.5" x2="139.756" y2="-1.5" transform="matrix(0.812041 -0.5836 0.485804 0.874068 402.003 533.685)" stroke="black" stroke-width="3"/>
<line y1="-1.5" x2="237.912" y2="-1.5" transform="matrix(0.336396 -0.941721 0.90656 0.422078 349.076 521.023)" stroke="black" stroke-width="3"/>
<line y1="-1.5" x2="210.296" y2="-1.5" transform="matrix(0.639019 -0.769191 0.70599 0.708222 372.991 529.026)" stroke="black" stroke-width="3"/>
<line y1="-1.5" x2="139.756" y2="-1.5" transform="matrix(0.812041 -0.5836 0.485804 0.874068 402.277 535.346)" stroke="black" stroke-width="3"/>
<line y1="-1.5" x2="237.912" y2="-1.5" transform="matrix(0.336396 -0.941721 0.90656 0.422078 351.076 521.023)" stroke="black" stroke-width="3"/>
<line y1="-1.5" x2="210.296" y2="-1.5" transform="matrix(0.639019 -0.769191 0.70599 0.708222 374.65 529.634)" stroke="black" stroke-width="3"/>
<line y1="-1.5" x2="139.756" y2="-1.5" transform="matrix(-0.0422451 -0.999107 0.997292 0.0735482 336.126 506.272)" stroke="black" stroke-width="3"/>
<line y1="-1.5" x2="237.912" y2="-1.5" transform="matrix(0.336396 -0.941721 0.90656 0.422078 354.076 521.023)" stroke="black" stroke-width="3"/>
<line y1="-1.5" x2="210.296" y2="-1.5" transform="matrix(0.639019 -0.769191 0.70599 0.708222 377.139 530.545)" stroke="black" stroke-width="3"/>
<line y1="-1.5" x2="139.756" y2="-1.5" transform="matrix(-0.0422451 -0.999107 0.997292 0.0735482 337.769 505.649)" stroke="black" stroke-width="3"/>
<line y1="-1.5" x2="237.912" y2="-1.5" transform="matrix(0.412336 -0.911032 0.868977 0.494853 349.042 517.373)" stroke="black" stroke-width="3"/>
<line y1="-1.5" x2="210.277" y2="-1.5" transform="matrix(0.699817 -0.714322 0.645669 0.763618 374.071 525.984)" stroke="black" stroke-width="3"/>
<line y1="-1.5" x2="139.486" y2="-1.5" transform="matrix(0.0402083 -0.999191 0.98807 0.154003 334.203 504.69)" stroke="black" stroke-width="3"/>
<line x1="370.666" y1="449.777" x2="436.623" y2="297.404" stroke="black" stroke-width="3"/>
<line y1="-1.5" x2="146.752" y2="-1.5" transform="matrix(0.687939 -0.725769 0.725003 0.688746 413.483 477.328)" stroke="black" stroke-width="3"/>
<line y1="-1.5" x2="97.3829" y2="-1.5" transform="matrix(0.0235836 -0.999722 0.998912 0.0466233 331.926 463.127)" stroke="black" stroke-width="3"/>
<line x1="387.666" y1="452.777" x2="453.623" y2="300.404" stroke="black" stroke-width="3"/>
<line y1="-1.5" x2="146.752" y2="-1.5" transform="matrix(0.687939 -0.725769 0.725003 0.688746 426.676 484.984)" stroke="black" stroke-width="3"/>
<line y1="-1.5" x2="97.3829" y2="-1.5" transform="matrix(0.0235836 -0.999722 0.998912 0.0466233 341.9 461.245)" stroke="black" stroke-width="3"/>
<line x1="383.102" y1="450.992" x2="460.284" y2="303.986" stroke="black" stroke-width="3"/>
<line y1="-1.5" x2="146.74" y2="-1.5" transform="matrix(0.740354 -0.672218 0.671396 0.741099 423.361 482.185)" stroke="black" stroke-width="3"/>
<line y1="-1.5" x2="97.2182" y2="-1.5" transform="matrix(0.0990896 -0.995079 0.992707 0.120548 339.001 461.278)" stroke="black" stroke-width="3"/>
<line y1="-1.5" x2="237.912" y2="-1.5" transform="matrix(0.412336 -0.911032 0.868977 0.494853 350.042 524.373)" stroke="black" stroke-width="3"/>
<line y1="-1.5" x2="210.277" y2="-1.5" transform="matrix(0.699817 -0.714322 0.645669 0.763618 372.776 532.102)" stroke="black" stroke-width="3"/>
<line y1="-1.5" x2="139.486" y2="-1.5" transform="matrix(0.0402083 -0.999191 0.98807 0.154003 336.304 508.325)" stroke="black" stroke-width="3"/>
<line y1="-1.5" x2="237.912" y2="-1.5" transform="matrix(0.412336 -0.911032 0.868977 0.494853 353.042 525.373)" stroke="black" stroke-width="3"/>
<line y1="-1.5" x2="210.277" y2="-1.5" transform="matrix(0.699817 -0.714322 0.645669 0.763618 374.962 533.844)" stroke="black" stroke-width="3"/>
<line y1="-1.5" x2="139.486" y2="-1.5" transform="matrix(0.0402083 -0.999191 0.98807 0.154003 338.168 508.251)" stroke="black" stroke-width="3"/>
<line x1="379.626" y1="462.77" x2="449.584" y2="303.397" stroke="black" stroke-width="3"/>
<line y1="-1.5" x2="153.836" y2="-1.5" transform="matrix(0.691641 -0.722241 0.721471 0.692445 416.97 490.846)" stroke="black" stroke-width="3"/>
<line y1="-1.5" x2="102.072" y2="-1.5" transform="matrix(0.0287364 -0.999587 0.998663 0.051688 339.716 468.405)" stroke="black" stroke-width="3"/>
<line x1="376.626" y1="459.77" x2="446.584" y2="300.397" stroke="black" stroke-width="3"/>
<line y1="-1.5" x2="153.836" y2="-1.5" transform="matrix(0.691641 -0.722241 0.721471 0.692445 415.391 487.443)" stroke="black" stroke-width="3"/>
<line y1="-1.5" x2="102.072" y2="-1.5" transform="matrix(0.0287364 -0.999587 0.998663 0.051688 337.408 467.381)" stroke="black" stroke-width="3"/>
<line x1="373.626" y1="456.77" x2="443.584" y2="297.397" stroke="black" stroke-width="3"/>
<line y1="-1.5" x2="153.836" y2="-1.5" transform="matrix(0.691641 -0.722241 0.721471 0.692445 413.813 484.04)" stroke="black" stroke-width="3"/>
<line y1="-1.5" x2="102.072" y2="-1.5" transform="matrix(0.0287364 -0.999587 0.998663 0.051688 335.099 466.357)" stroke="black" stroke-width="3"/>
<line x1="367.151" y1="460.697" x2="427.996" y2="297.627" stroke="black" stroke-width="3"/>
<line y1="-1.5" x2="153.845" y2="-1.5" transform="matrix(0.649749 -0.760149 0.759433 0.650585 407.3 485.279)" stroke="black" stroke-width="3"/>
<line y1="-1.5" x2="102.208" y2="-1.5" transform="matrix(0.820192 -0.572088 0.552439 0.833553 431.677 512.929)" stroke="black" stroke-width="3"/>
<line y1="-7.5" x2="102.208" y2="-7.5" transform="matrix(0.820192 -0.572088 0.552439 0.833553 449.677 512.929)" stroke="black" stroke-width="15"/>
<line y1="-7.5" x2="102.208" y2="-7.5" transform="matrix(0.820192 -0.572088 0.552439 0.833553 433.677 525.929)" stroke="black" stroke-width="15"/>
<line y1="-7.5" x2="102.208" y2="-7.5" transform="matrix(0.820192 -0.572088 0.552439 0.833553 448.677 518.929)" stroke="black" stroke-width="15"/>
<line x1="454.527" y1="503.111" x2="520.688" y2="469.734" stroke="black" stroke-width="15"/>
<line x1="458.754" y1="496.989" x2="524.916" y2="463.612" stroke="black" stroke-width="15"/>
<line x1="476.442" y1="478.977" x2="535.626" y2="434.383" stroke="black" stroke-width="8"/>
<line x1="474.442" y1="485.977" x2="533.626" y2="441.383" stroke="black" stroke-width="8"/>
<line x1="473.442" y1="491.977" x2="532.626" y2="447.383" stroke="black" stroke-width="8"/>
<line x1="468.442" y1="498.977" x2="527.626" y2="454.383" stroke="black" stroke-width="8"/>
<line x1="374.708" y1="460.545" x2="435.552" y2="297.476" stroke="black" stroke-width="3"/>
<line y1="-1.5" x2="153.845" y2="-1.5" transform="matrix(0.649749 -0.760149 0.759433 0.650585 413.615 487.448)" stroke="black" stroke-width="3"/>
<line y1="-1.5" x2="102.208" y2="-1.5" transform="matrix(-0.0281488 -0.999604 0.99999 -0.00439065 336.529 468.155)" stroke="black" stroke-width="3"/>
<line x1="377.265" y1="460.394" x2="438.109" y2="297.324" stroke="black" stroke-width="3"/>
<line y1="-1.5" x2="153.845" y2="-1.5" transform="matrix(0.649749 -0.760149 0.759433 0.650585 415.781 488.099)" stroke="black" stroke-width="3"/>
<line y1="-1.5" x2="102.208" y2="-1.5" transform="matrix(-0.0281488 -0.999604 0.99999 -0.00439065 337.895 467.541)" stroke="black" stroke-width="3"/>
<line x1="380.265" y1="461.394" x2="441.109" y2="298.324" stroke="black" stroke-width="3"/>
<line y1="-1.5" x2="153.845" y2="-1.5" transform="matrix(0.649749 -0.760149 0.759433 0.650585 417.967 489.841)" stroke="black" stroke-width="3"/>
<line y1="-1.5" x2="102.208" y2="-1.5" transform="matrix(-0.0281488 -0.999604 0.99999 -0.00439065 339.76 467.467)" stroke="black" stroke-width="3"/>
<line x1="376.469" y1="457.824" x2="457.056" y2="303.553" stroke="black" stroke-width="3"/>
<line y1="-1.5" x2="153.824" y2="-1.5" transform="matrix(0.73895 -0.67376 0.672939 0.739698 415.787 485.842)" stroke="black" stroke-width="3"/>
<line y1="-1.5" x2="101.916" y2="-1.5" transform="matrix(0.0969917 -0.995285 0.992954 0.118502 336.886 466.405)" stroke="black" stroke-width="3"/>
<line x1="381.286" y1="459.258" x2="450.403" y2="299.519" stroke="black" stroke-width="3"/>
<line y1="-1.5" x2="153.837" y2="-1.5" transform="matrix(0.687829 -0.725873 0.725107 0.688636 419.417 488.428)" stroke="black" stroke-width="3"/>
<line y1="-1.5" x2="102.084" y2="-1.5" transform="matrix(0.0234307 -0.999726 0.99892 0.0464731 339.845 466.128)" stroke="black" stroke-width="3"/>
<line x1="372.871" y1="457.435" x2="454.65" y2="303.792" stroke="black" stroke-width="3"/>
<line y1="-1.5" x2="153.823" y2="-1.5" transform="matrix(0.744144 -0.66802 0.667195 0.744883 412.913 484.433)" stroke="black" stroke-width="3"/>
<line y1="-1.5" x2="101.899" y2="-1.5" transform="matrix(0.104779 -0.994496 0.992018 0.126094 334.829 466.945)" stroke="black" stroke-width="3"/>
<line y1="-4" x2="153.823" y2="-4" transform="matrix(0.601004 -0.799246 0.798579 0.60189 426.922 476.525)" stroke="black" stroke-width="8"/>
<line y1="-4" x2="102.34" y2="-4" transform="matrix(-0.0907821 -0.995871 0.997784 -0.0665377 338.229 456.888)" stroke="black" stroke-width="8"/>
<line y1="-4" x2="102.34" y2="-4" transform="matrix(-0.0907821 -0.995871 0.997784 -0.0665377 337.291 441.918)" stroke="black" stroke-width="8"/>
<line y1="-4" x2="102.34" y2="-4" transform="matrix(-0.0907821 -0.995871 0.997784 -0.0665377 341.291 437.918)" stroke="black" stroke-width="8"/>
<line y1="-4" x2="102.34" y2="-4" transform="matrix(-0.0907821 -0.995871 0.997784 -0.0665377 343.291 433.918)" stroke="black" stroke-width="8"/>
<line y1="-4" x2="102.34" y2="-4" transform="matrix(-0.0907821 -0.995871 0.997784 -0.0665377 348.291 428.918)" stroke="black" stroke-width="8"/>
<line x1="347.021" y1="391.41" x2="340.021" y2="323.41" stroke="black" stroke-width="8"/>
<line x1="351.03" y1="378.738" x2="357.423" y2="310.678" stroke="black" stroke-width="8"/>
<line x1="345.043" y1="382.85" x2="351.436" y2="314.79" stroke="black" stroke-width="8"/>
<line x1="339.056" y1="387.962" x2="345.449" y2="319.903" stroke="black" stroke-width="8"/>
<line x1="337.069" y1="512.075" x2="343.462" y2="444.015" stroke="black" stroke-width="8"/>
<line x1="333.081" y1="507.187" x2="339.474" y2="439.127" stroke="black" stroke-width="8"/>
<line x1="329.094" y1="454.299" x2="335.487" y2="386.239" stroke="black" stroke-width="8"/>
<line x1="333.78" y1="488.135" x2="328.813" y2="419.957" stroke="black" stroke-width="8"/>
<line y1="-4" x2="102.34" y2="-4" transform="matrix(0.0893183 -0.996003 0.993537 0.113513 344.374 471.763)" stroke="black" stroke-width="8"/>
<line y1="-4" x2="102.34" y2="-4" transform="matrix(-0.0759591 -0.997111 0.998663 -0.0516889 339.282 447.45)" stroke="black" stroke-width="8"/>
<line y1="-4" x2="102.34" y2="-4" transform="matrix(-0.0759591 -0.997111 0.998663 -0.0516889 343.252 449.421)" stroke="black" stroke-width="8"/>
<line y1="-4" x2="102.34" y2="-4" transform="matrix(-0.0759591 -0.997111 0.998663 -0.0516889 347.247 454.998)" stroke="black" stroke-width="8"/>
<line y1="-4" x2="102.34" y2="-4" transform="matrix(0.0844816 -0.996425 0.994076 0.108688 336.371 459.755)" stroke="black" stroke-width="8"/>
<line y1="-4" x2="102.34" y2="-4" transform="matrix(0.879343 -0.476188 0.454663 0.890663 401.301 541.229)" stroke="black" stroke-width="8"/>
<line y1="-4" x2="102.34" y2="-4" transform="matrix(0.879343 -0.476188 0.454663 0.890663 397.355 542.748)" stroke="black" stroke-width="8"/>
<line y1="-4" x2="153.823" y2="-4" transform="matrix(0.601004 -0.799246 0.798579 0.60189 430.931 480.618)" stroke="black" stroke-width="8"/>
<line y1="-4" x2="102.34" y2="-4" transform="matrix(-0.0907821 -0.995871 0.997784 -0.0665377 342.052 457.204)" stroke="black" stroke-width="8"/>
<line y1="-4" x2="153.823" y2="-4" transform="matrix(0.672066 -0.740491 0.739746 0.672886 422.474 479.192)" stroke="black" stroke-width="8"/>
<line y1="-4" x2="102.124" y2="-4" transform="matrix(0.0017752 -0.999998 0.999683 0.0251537 337.22 460.16)" stroke="black" stroke-width="8"/>
<line y1="-4" x2="153.823" y2="-4" transform="matrix(0.672066 -0.740491 0.739746 0.672886 426.018 484.766)" stroke="black" stroke-width="8"/>
<line y1="-4" x2="102.124" y2="-4" transform="matrix(0.0017752 -0.999998 0.999683 0.0251537 341.476 461.421)" stroke="black" stroke-width="8"/>
<line y1="-4" x2="153.823" y2="-4" transform="matrix(0.72255 -0.691319 0.690518 0.723315 421.679 484.558)" stroke="black" stroke-width="8"/>
<line y1="-4" x2="101.967" y2="-4" transform="matrix(0.0727985 -0.997347 0.99549 0.0948714 339.231 463.201)" stroke="black" stroke-width="8"/>
<line y1="-4" x2="153.823" y2="-4" transform="matrix(0.72255 -0.691319 0.690518 0.723315 390.339 520.35)" stroke="black" stroke-width="8"/>
<line y1="-4" x2="101.967" y2="-4" transform="matrix(0.873702 -0.486461 0.466989 0.884263 414.805 532.757)" stroke="black" stroke-width="8"/>
<line y1="-4" x2="153.823" y2="-4" transform="matrix(0.72255 -0.691319 0.690518 0.723315 372 536.142)" stroke="black" stroke-width="8"/>
<line y1="-4" x2="101.967" y2="-4" transform="matrix(0.873702 -0.486461 0.466989 0.884263 400.41 539.8)" stroke="black" stroke-width="8"/>
<g filter="url(#filter1_d_8_2)">
<line y1="-1.5" x2="245.259" y2="-1.5" transform="matrix(0.446998 -0.894535 0.890953 0.454094 353.295 524.392)" stroke="black" stroke-width="3"/>
</g>
<line y1="-1.5" x2="237.245" y2="-1.5" transform="matrix(0.628987 -0.777415 0.713886 0.700261 366.861 532.36)" stroke="black" stroke-width="3"/>
<g filter="url(#filter2_d_8_2)">
<line y1="-1.5" x2="217.701" y2="-1.5" transform="matrix(0.71808 -0.695961 0.688837 0.724916 376.9 535.511)" stroke="black" stroke-width="3"/>
</g>
<line y1="-1.5" x2="184.929" y2="-1.5" transform="matrix(0.802313 -0.596904 0.589305 0.80791 390.797 541.385)" stroke="black" stroke-width="3"/>
<g filter="url(#filter3_d_8_2)">
<line y1="-1.5" x2="135.07" y2="-1.5" transform="matrix(0.884171 -0.467163 0.45997 0.887934 401.92 543.099)" stroke="black" stroke-width="3"/>
</g>
<rect x="609.5" y="257.5" width="85" height="85" fill="#FF7F50" stroke="black" stroke-width="3"/>
<rect x="609.5" y="374.5" width="85" height="85" fill="#FF7F50" stroke="black" stroke-width="3"/>
<rect x="609.5" y="494.5" width="85" height="85" fill="#FF7F50" stroke="black" stroke-width="3"/>
<path d="M637.045 328V269.818H644.091V321.75H671.136V328H637.045Z" fill="black"/>
<path d="M665.227 508.818H672.273V547.341C672.273 551.318 671.335 554.869 669.46 557.994C667.604 561.1 664.981 563.553 661.591 565.352C658.201 567.133 654.223 568.023 649.659 568.023C645.095 568.023 641.117 567.133 637.727 565.352C634.337 563.553 631.705 561.1 629.83 557.994C627.973 554.869 627.045 551.318 627.045 547.341V508.818H634.091V546.773C634.091 549.614 634.716 552.142 635.966 554.358C637.216 556.555 638.996 558.288 641.307 559.557C643.636 560.807 646.42 561.432 649.659 561.432C652.898 561.432 655.682 560.807 658.011 559.557C660.341 558.288 662.121 556.555 663.352 554.358C664.602 552.142 665.227 549.614 665.227 546.773V508.818Z" fill="black"/>
<path d="M637.045 446V387.818H656.705C661.269 387.818 665 388.642 667.898 390.29C670.814 391.919 672.973 394.125 674.375 396.909C675.777 399.693 676.477 402.799 676.477 406.227C676.477 409.655 675.777 412.771 674.375 415.574C672.992 418.377 670.852 420.612 667.955 422.278C665.057 423.926 661.345 424.75 656.818 424.75H642.727V418.5H656.591C659.716 418.5 662.225 417.96 664.119 416.881C666.013 415.801 667.386 414.343 668.239 412.506C669.11 410.65 669.545 408.557 669.545 406.227C669.545 403.898 669.11 401.814 668.239 399.977C667.386 398.14 666.004 396.701 664.091 395.659C662.178 394.598 659.64 394.068 656.477 394.068H644.091V446H637.045Z" fill="black"/>
<path d="M763.136 298.909C763.136 305.045 762.028 310.348 759.812 314.818C757.597 319.288 754.557 322.735 750.693 325.159C746.83 327.583 742.417 328.795 737.455 328.795C732.492 328.795 728.08 327.583 724.216 325.159C720.352 322.735 717.313 319.288 715.097 314.818C712.881 310.348 711.773 305.045 711.773 298.909C711.773 292.773 712.881 287.47 715.097 283C717.313 278.53 720.352 275.083 724.216 272.659C728.08 270.235 732.492 269.023 737.455 269.023C742.417 269.023 746.83 270.235 750.693 272.659C754.557 275.083 757.597 278.53 759.812 283C762.028 287.47 763.136 292.773 763.136 298.909ZM756.318 298.909C756.318 293.871 755.475 289.619 753.79 286.153C752.123 282.688 749.86 280.064 747 278.284C744.159 276.504 740.977 275.614 737.455 275.614C733.932 275.614 730.741 276.504 727.881 278.284C725.04 280.064 722.777 282.688 721.091 286.153C719.424 289.619 718.591 293.871 718.591 298.909C718.591 303.947 719.424 308.199 721.091 311.665C722.777 315.131 725.04 317.754 727.881 319.534C730.741 321.314 733.932 322.205 737.455 322.205C740.977 322.205 744.159 321.314 747 319.534C749.86 317.754 752.123 315.131 753.79 311.665C755.475 308.199 756.318 303.947 756.318 298.909ZM774.635 269.818L791.908 318.795H792.589L809.862 269.818H817.249L795.885 328H788.612L767.249 269.818H774.635ZM826.311 328V269.818H861.425V276.068H833.357V295.727H859.607V301.977H833.357V321.75H861.879V328H826.311ZM874.124 328V269.818H881.169V321.75H908.214V328H874.124ZM911.389 269.818H919.457L935.594 296.977H936.276L952.412 269.818H960.48L939.457 304.023V328H932.412V304.023L911.389 269.818Z" fill="black"/>
<path d="M714.045 448V389.818H733.705C738.25 389.818 741.981 390.595 744.898 392.148C747.814 393.682 749.973 395.794 751.375 398.483C752.777 401.172 753.477 404.231 753.477 407.659C753.477 411.087 752.777 414.127 751.375 416.778C749.973 419.43 747.824 421.513 744.926 423.028C742.028 424.525 738.326 425.273 733.818 425.273H717.909V418.909H733.591C736.697 418.909 739.197 418.455 741.091 417.545C743.004 416.636 744.386 415.348 745.239 413.682C746.11 411.996 746.545 409.989 746.545 407.659C746.545 405.33 746.11 403.294 745.239 401.551C744.367 399.809 742.975 398.464 741.062 397.517C739.15 396.551 736.621 396.068 733.477 396.068H721.091V448H714.045ZM741.432 421.864L755.75 448H747.568L733.477 421.864H741.432ZM814.308 418.909C814.308 425.045 813.2 430.348 810.984 434.818C808.768 439.288 805.729 442.735 801.865 445.159C798.001 447.583 793.589 448.795 788.626 448.795C783.664 448.795 779.251 447.583 775.388 445.159C771.524 442.735 768.484 439.288 766.268 434.818C764.053 430.348 762.945 425.045 762.945 418.909C762.945 412.773 764.053 407.47 766.268 403C768.484 398.53 771.524 395.083 775.388 392.659C779.251 390.235 783.664 389.023 788.626 389.023C793.589 389.023 798.001 390.235 801.865 392.659C805.729 395.083 808.768 398.53 810.984 403C813.2 407.47 814.308 412.773 814.308 418.909ZM807.49 418.909C807.49 413.871 806.647 409.619 804.962 406.153C803.295 402.688 801.032 400.064 798.172 398.284C795.331 396.504 792.149 395.614 788.626 395.614C785.104 395.614 781.912 396.504 779.053 398.284C776.212 400.064 773.948 402.688 772.263 406.153C770.596 409.619 769.763 413.871 769.763 418.909C769.763 423.947 770.596 428.199 772.263 431.665C773.948 435.131 776.212 437.754 779.053 439.534C781.912 441.314 785.104 442.205 788.626 442.205C792.149 442.205 795.331 441.314 798.172 439.534C801.032 437.754 803.295 435.131 804.962 431.665C806.647 428.199 807.49 423.947 807.49 418.909ZM826.155 448V389.818H861.041V396.068H833.2V415.727H858.428V421.977H833.2V448H826.155ZM873.108 448V389.818H908.222V396.068H880.153V415.727H906.403V421.977H880.153V441.75H908.676V448H873.108ZM952.739 404.364C952.398 401.485 951.015 399.25 948.591 397.659C946.167 396.068 943.193 395.273 939.67 395.273C937.095 395.273 934.841 395.689 932.909 396.523C930.996 397.356 929.5 398.502 928.42 399.96C927.36 401.419 926.83 403.076 926.83 404.932C926.83 406.485 927.199 407.82 927.938 408.938C928.695 410.036 929.661 410.955 930.835 411.693C932.009 412.413 933.241 413.009 934.528 413.483C935.816 413.937 937 414.307 938.08 414.591L943.989 416.182C945.504 416.58 947.189 417.129 949.045 417.83C950.92 418.53 952.71 419.487 954.415 420.699C956.138 421.892 957.559 423.426 958.676 425.301C959.794 427.176 960.352 429.477 960.352 432.205C960.352 435.348 959.528 438.189 957.881 440.727C956.252 443.265 953.866 445.282 950.722 446.778C947.597 448.275 943.799 449.023 939.33 449.023C935.163 449.023 931.555 448.35 928.506 447.006C925.475 445.661 923.089 443.786 921.347 441.381C919.623 438.975 918.648 436.182 918.42 433H925.693C925.883 435.197 926.621 437.015 927.909 438.455C929.216 439.875 930.864 440.936 932.852 441.636C934.86 442.318 937.019 442.659 939.33 442.659C942.019 442.659 944.434 442.223 946.574 441.352C948.714 440.462 950.409 439.231 951.659 437.659C952.909 436.068 953.534 434.212 953.534 432.091C953.534 430.159 952.994 428.587 951.915 427.375C950.835 426.163 949.415 425.178 947.653 424.42C945.892 423.663 943.989 423 941.943 422.432L934.784 420.386C930.239 419.08 926.64 417.214 923.989 414.79C921.337 412.366 920.011 409.193 920.011 405.273C920.011 402.015 920.892 399.174 922.653 396.75C924.434 394.307 926.82 392.413 929.812 391.068C932.824 389.705 936.186 389.023 939.898 389.023C943.648 389.023 946.981 389.695 949.898 391.04C952.814 392.366 955.125 394.184 956.83 396.494C958.553 398.805 959.462 401.428 959.557 404.364H952.739ZM1003.75 404.364C1003.41 401.485 1002.03 399.25 999.607 397.659C997.182 396.068 994.209 395.273 990.686 395.273C988.11 395.273 985.857 395.689 983.925 396.523C982.012 397.356 980.516 398.502 979.436 399.96C978.375 401.419 977.845 403.076 977.845 404.932C977.845 406.485 978.214 407.82 978.953 408.938C979.711 410.036 980.677 410.955 981.851 411.693C983.025 412.413 984.256 413.009 985.544 413.483C986.832 413.937 988.016 414.307 989.095 414.591L995.004 416.182C996.519 416.58 998.205 417.129 1000.06 417.83C1001.94 418.53 1003.73 419.487 1005.43 420.699C1007.15 421.892 1008.57 423.426 1009.69 425.301C1010.81 427.176 1011.37 429.477 1011.37 432.205C1011.37 435.348 1010.54 438.189 1008.9 440.727C1007.27 443.265 1004.88 445.282 1001.74 446.778C998.612 448.275 994.815 449.023 990.345 449.023C986.179 449.023 982.571 448.35 979.521 447.006C976.491 445.661 974.105 443.786 972.362 441.381C970.639 438.975 969.663 436.182 969.436 433H976.709C976.898 435.197 977.637 437.015 978.925 438.455C980.232 439.875 981.879 440.936 983.868 441.636C985.875 442.318 988.035 442.659 990.345 442.659C993.035 442.659 995.449 442.223 997.589 441.352C999.73 440.462 1001.42 439.231 1002.67 437.659C1003.92 436.068 1004.55 434.212 1004.55 432.091C1004.55 430.159 1004.01 428.587 1002.93 427.375C1001.85 426.163 1000.43 425.178 998.669 424.42C996.908 423.663 995.004 423 992.959 422.432L985.8 420.386C981.254 419.08 977.656 417.214 975.004 414.79C972.353 412.366 971.027 409.193 971.027 405.273C971.027 402.015 971.908 399.174 973.669 396.75C975.449 394.307 977.836 392.413 980.828 391.068C983.839 389.705 987.201 389.023 990.913 389.023C994.663 389.023 997.997 389.695 1000.91 391.04C1003.83 392.366 1006.14 394.184 1007.85 396.494C1009.57 398.805 1010.48 401.428 1010.57 404.364H1003.75ZM1030 389.818V448H1022.95V389.818H1030ZM1093.21 418.909C1093.21 425.045 1092.11 430.348 1089.89 434.818C1087.67 439.288 1084.63 442.735 1080.77 445.159C1076.91 447.583 1072.49 448.795 1067.53 448.795C1062.57 448.795 1058.16 447.583 1054.29 445.159C1050.43 442.735 1047.39 439.288 1045.17 434.818C1042.96 430.348 1041.85 425.045 1041.85 418.909C1041.85 412.773 1042.96 407.47 1045.17 403C1047.39 398.53 1050.43 395.083 1054.29 392.659C1058.16 390.235 1062.57 389.023 1067.53 389.023C1072.49 389.023 1076.91 390.235 1080.77 392.659C1084.63 395.083 1087.67 398.53 1089.89 403C1092.11 407.47 1093.21 412.773 1093.21 418.909ZM1086.4 418.909C1086.4 413.871 1085.55 409.619 1083.87 406.153C1082.2 402.688 1079.94 400.064 1077.08 398.284C1074.24 396.504 1071.06 395.614 1067.53 395.614C1064.01 395.614 1060.82 396.504 1057.96 398.284C1055.12 400.064 1052.85 402.688 1051.17 406.153C1049.5 409.619 1048.67 413.871 1048.67 418.909C1048.67 423.947 1049.5 428.199 1051.17 431.665C1052.85 435.131 1055.12 437.754 1057.96 439.534C1060.82 441.314 1064.01 442.205 1067.53 442.205C1071.06 442.205 1074.24 441.314 1077.08 439.534C1079.94 437.754 1082.2 435.131 1083.87 431.665C1085.55 428.199 1086.4 423.947 1086.4 418.909ZM1151.2 389.818V448H1144.38L1112.67 402.318H1112.11V448H1105.06V389.818H1111.88L1143.7 435.614H1144.27V389.818H1151.2ZM1167.68 448H1160.3L1181.66 389.818H1188.93L1210.3 448H1202.91L1185.52 399.023H1185.07L1167.68 448ZM1170.41 425.273H1200.18V431.523H1170.41V425.273ZM1219.36 448V389.818H1226.4V441.75H1253.45V448H1219.36Z" fill="black"/>
<path d="M760.182 504.818V563H753.364L721.659 517.318H721.091V563H714.045V504.818H720.864L752.682 550.614H753.25V504.818H760.182ZM781.325 504.818V563H774.28V504.818H781.325ZM797.838 504.818L815.111 553.795H815.793L833.065 504.818H840.452L819.088 563H811.815L790.452 504.818H797.838ZM849.514 563V504.818H884.628V511.068H856.56V530.727H882.81V536.977H856.56V556.75H885.082V563H849.514ZM897.327 563V504.818H916.986C921.531 504.818 925.262 505.595 928.179 507.148C931.096 508.682 933.255 510.794 934.656 513.483C936.058 516.172 936.759 519.231 936.759 522.659C936.759 526.087 936.058 529.127 934.656 531.778C933.255 534.43 931.105 536.513 928.207 538.028C925.31 539.525 921.607 540.273 917.099 540.273H901.19V533.909H916.872C919.978 533.909 922.478 533.455 924.372 532.545C926.285 531.636 927.668 530.348 928.52 528.682C929.391 526.996 929.827 524.989 929.827 522.659C929.827 520.33 929.391 518.294 928.52 516.551C927.649 514.809 926.257 513.464 924.344 512.517C922.431 511.551 919.902 511.068 916.759 511.068H904.372V563H897.327ZM924.713 536.864L939.031 563H930.849L916.759 536.864H924.713ZM980.317 519.364C979.976 516.485 978.593 514.25 976.169 512.659C973.745 511.068 970.771 510.273 967.249 510.273C964.673 510.273 962.419 510.689 960.487 511.523C958.574 512.356 957.078 513.502 955.999 514.96C954.938 516.419 954.408 518.076 954.408 519.932C954.408 521.485 954.777 522.82 955.516 523.938C956.273 525.036 957.239 525.955 958.413 526.693C959.588 527.413 960.819 528.009 962.107 528.483C963.394 528.937 964.578 529.307 965.658 529.591L971.567 531.182C973.082 531.58 974.768 532.129 976.624 532.83C978.499 533.53 980.288 534.487 981.993 535.699C983.716 536.892 985.137 538.426 986.254 540.301C987.372 542.176 987.93 544.477 987.93 547.205C987.93 550.348 987.107 553.189 985.459 555.727C983.83 558.265 981.444 560.282 978.3 561.778C975.175 563.275 971.377 564.023 966.908 564.023C962.741 564.023 959.133 563.35 956.084 562.006C953.054 560.661 950.667 558.786 948.925 556.381C947.201 553.975 946.226 551.182 945.999 548H953.271C953.461 550.197 954.199 552.015 955.487 553.455C956.794 554.875 958.442 555.936 960.43 556.636C962.438 557.318 964.597 557.659 966.908 557.659C969.597 557.659 972.012 557.223 974.152 556.352C976.292 555.462 977.987 554.231 979.237 552.659C980.487 551.068 981.112 549.212 981.112 547.091C981.112 545.159 980.572 543.587 979.493 542.375C978.413 541.163 976.993 540.178 975.232 539.42C973.47 538.663 971.567 538 969.521 537.432L962.362 535.386C957.817 534.08 954.218 532.214 951.567 529.79C948.915 527.366 947.589 524.193 947.589 520.273C947.589 517.015 948.47 514.174 950.232 511.75C952.012 509.307 954.398 507.413 957.391 506.068C960.402 504.705 963.764 504.023 967.476 504.023C971.226 504.023 974.559 504.695 977.476 506.04C980.393 507.366 982.703 509.184 984.408 511.494C986.131 513.805 987.04 516.428 987.135 519.364H980.317ZM1006.56 504.818V563H999.514V504.818H1006.56ZM1017.5 511.068V504.818H1061.14V511.068H1042.85V563H1035.8V511.068H1017.5ZM1067.01 504.818H1075.08L1091.22 531.977H1091.9L1108.04 504.818H1116.11L1095.08 539.023V563H1088.04V539.023L1067.01 504.818Z" fill="black"/>
<ellipse cx="286.5" cy="484" rx="6.5" ry="5" fill="black"/>
<ellipse cx="540.5" cy="492" rx="6.5" ry="5" fill="black"/>
<path d="M315.943 327.244L306.769 315.957L310.213 312.45C311.012 311.636 311.796 311.13 312.563 310.933C313.331 310.729 314.057 310.772 314.742 311.062C315.426 311.352 316.039 311.83 316.579 312.495C317.12 313.16 317.488 313.89 317.685 314.683C317.884 315.474 317.862 316.289 317.617 317.129C317.369 317.966 316.849 318.788 316.056 319.595L313.588 322.108L312.602 320.896L315.031 318.423C315.578 317.866 315.933 317.313 316.094 316.766C316.256 316.219 316.266 315.691 316.126 315.183C315.986 314.667 315.732 314.183 315.365 313.731C314.998 313.279 314.593 312.953 314.15 312.752C313.711 312.548 313.242 312.515 312.743 312.654C312.241 312.789 311.712 313.139 311.158 313.703L308.989 315.913L317.177 325.988L315.943 327.244Z" fill="black"/>
<path d="M327.839 315.431L319.936 303.22L323.745 300.114C324.625 299.396 325.454 298.969 326.23 298.834C327.003 298.695 327.708 298.798 328.345 299.141C328.982 299.484 329.533 300.015 329.999 300.734C330.465 301.454 330.742 302.202 330.83 302.98C330.919 303.758 330.786 304.535 330.43 305.311C330.072 306.083 329.456 306.825 328.583 307.537L325.5 310.05L324.636 308.715L327.674 306.237C328.276 305.747 328.699 305.256 328.942 304.766C329.189 304.273 329.282 303.784 329.221 303.3C329.161 302.809 328.972 302.318 328.656 301.829C328.34 301.341 327.979 300.982 327.573 300.754C327.168 300.526 326.715 300.464 326.216 300.567C325.714 300.667 325.159 300.965 324.55 301.461L322.15 303.418L329.204 314.318L327.839 315.431ZM329.595 305.619L335.919 308.842L334.334 310.135L328.053 306.875L329.595 305.619Z" fill="black"/>
<path d="M347.946 292.038C348.628 293.413 348.982 294.748 349.009 296.044C349.036 297.34 348.776 298.517 348.227 299.574C347.679 300.632 346.88 301.491 345.829 302.151C344.779 302.812 343.711 303.128 342.624 303.099C341.537 303.07 340.511 302.703 339.546 301.996C338.581 301.29 337.758 300.25 337.077 298.875C336.395 297.501 336.041 296.165 336.014 294.869C335.987 293.573 336.247 292.396 336.796 291.339C337.344 290.282 338.143 289.423 339.193 288.762C340.244 288.102 341.312 287.786 342.399 287.815C343.485 287.843 344.511 288.211 345.477 288.917C346.442 289.623 347.265 290.664 347.946 292.038ZM346.503 292.946C345.944 291.817 345.294 290.977 344.552 290.425C343.815 289.871 343.045 289.584 342.242 289.566C341.443 289.546 340.671 289.77 339.925 290.239C339.18 290.708 338.603 291.332 338.196 292.111C337.792 292.888 337.604 293.777 337.632 294.778C337.665 295.776 337.96 296.839 338.52 297.968C339.079 299.096 339.727 299.938 340.465 300.492C341.206 301.044 341.976 301.33 342.775 301.351C343.578 301.369 344.352 301.144 345.098 300.675C345.843 300.206 346.418 299.583 346.821 298.806C347.229 298.027 347.417 297.138 347.384 296.14C347.356 295.139 347.063 294.074 346.503 292.946Z" fill="black"/>
<path d="M357.188 295.241L352.183 281.584L360.077 277.877L360.615 279.344L354.315 282.302L356.006 286.917L361.715 284.236L362.253 285.703L356.544 288.384L358.783 294.492L357.188 295.241Z" fill="black"/>
<path d="M371.166 289.002L367.487 274.929L375.8 272.109L376.195 273.62L369.55 275.875L370.793 280.63L377.008 278.521L377.403 280.033L371.188 282.142L372.438 286.924L379.191 284.633L379.586 286.145L371.166 289.002Z" fill="black"/>
<path d="M391.693 271.996C391.496 271.303 391.069 270.823 390.414 270.557C389.758 270.29 389 270.249 388.139 270.433C387.509 270.567 386.974 270.787 386.535 271.094C386.1 271.399 385.779 271.76 385.573 272.176C385.371 272.592 385.307 273.028 385.38 273.487C385.442 273.87 385.585 274.18 385.809 274.418C386.038 274.649 386.31 274.826 386.627 274.947C386.942 275.063 387.267 275.146 387.6 275.196C387.933 275.241 388.237 275.271 388.512 275.285L390.02 275.369C390.406 275.388 390.84 275.436 391.321 275.512C391.808 275.588 392.283 275.73 392.747 275.941C393.216 276.145 393.624 276.45 393.971 276.855C394.318 277.259 394.546 277.798 394.653 278.472C394.778 279.248 394.688 279.992 394.386 280.704C394.088 281.416 393.584 282.038 392.874 282.571C392.169 283.104 391.27 283.486 390.177 283.719C389.159 283.936 388.25 283.959 387.451 283.786C386.657 283.612 386 283.273 385.479 282.77C384.962 282.266 384.614 281.628 384.432 280.854L386.211 280.475C386.344 281.007 386.596 281.418 386.968 281.706C387.343 281.988 387.788 282.164 388.302 282.234C388.82 282.297 389.361 282.269 389.926 282.148C390.584 282.008 391.157 281.775 391.646 281.448C392.134 281.117 392.5 280.724 392.743 280.271C392.986 279.813 393.066 279.323 392.982 278.799C392.906 278.322 392.712 277.962 392.4 277.719C392.088 277.476 391.702 277.307 391.241 277.212C390.781 277.117 390.289 277.052 389.767 277.019L387.935 276.887C386.772 276.801 385.819 276.528 385.075 276.068C384.331 275.608 383.881 274.894 383.727 273.926C383.598 273.122 383.701 272.375 384.036 271.684C384.375 270.989 384.884 270.397 385.562 269.909C386.245 269.415 387.04 269.071 387.947 268.878C388.864 268.682 389.706 268.675 390.472 268.854C391.238 269.03 391.874 269.358 392.382 269.84C392.895 270.32 393.221 270.92 393.36 271.64L391.693 271.996Z" fill="black"/>
<path d="M408.602 269.898C408.475 269.187 408.097 268.659 407.47 268.316C406.842 267.972 406.09 267.839 405.212 267.917C404.571 267.973 404.016 268.127 403.547 268.378C403.083 268.628 402.728 268.947 402.481 269.334C402.238 269.722 402.131 270.147 402.159 270.61C402.182 270.998 402.294 271.323 402.494 271.585C402.7 271.843 402.954 272.051 403.257 272.209C403.56 272.363 403.876 272.485 404.204 272.574C404.531 272.66 404.831 272.726 405.104 272.773L406.6 273.04C406.983 273.105 407.411 273.205 407.884 273.339C408.361 273.473 408.821 273.672 409.263 273.937C409.71 274.197 410.087 274.549 410.393 274.992C410.7 275.435 410.873 275.997 410.914 276.678C410.961 277.462 410.798 278.189 410.425 278.859C410.058 279.528 409.493 280.084 408.733 280.527C407.977 280.969 407.042 281.239 405.929 281.338C404.892 281.43 403.983 281.341 403.204 281.073C402.429 280.804 401.807 280.389 401.337 279.827C400.872 279.264 400.587 278.589 400.483 277.8L402.294 277.64C402.374 278.184 402.585 278.621 402.928 278.952C403.274 279.278 403.7 279.506 404.206 279.637C404.716 279.763 405.259 279.801 405.834 279.75C406.504 279.691 407.099 279.529 407.619 279.264C408.139 278.995 408.542 278.65 408.83 278.23C409.118 277.806 409.246 277.329 409.214 276.8C409.185 276.317 409.027 275.937 408.74 275.658C408.454 275.38 408.085 275.165 407.635 275.015C407.185 274.865 406.701 274.741 406.184 274.644L404.37 274.292C403.219 274.066 402.295 273.679 401.598 273.133C400.902 272.586 400.524 271.824 400.466 270.845C400.417 270.032 400.594 269.304 400.997 268.66C401.404 268.011 401.97 267.486 402.695 267.085C403.424 266.678 404.251 266.434 405.176 266.352C406.11 266.269 406.95 266.364 407.696 266.635C408.442 266.902 409.045 267.305 409.504 267.844C409.967 268.382 410.233 269.017 410.3 269.747L408.602 269.898Z" fill="black"/>
<path d="M419.282 266.072L418.998 280.614L417.236 280.596L417.52 266.053L419.282 266.072Z" fill="black"/>
<path d="M439.837 275.12C439.673 276.645 439.257 277.93 438.588 278.975C437.919 280.02 437.072 280.786 436.049 281.273C435.025 281.76 433.898 281.929 432.666 281.781C431.434 281.633 430.371 281.199 429.477 280.481C428.583 279.763 427.92 278.816 427.489 277.638C427.058 276.461 426.925 275.11 427.088 273.584C427.252 272.059 427.668 270.774 428.337 269.729C429.007 268.684 429.853 267.918 430.877 267.431C431.9 266.944 433.028 266.775 434.259 266.923C435.491 267.071 436.554 267.505 437.448 268.223C438.343 268.941 439.005 269.888 439.436 271.066C439.867 272.243 440.001 273.594 439.837 275.12ZM438.145 274.916C438.279 273.664 438.183 272.581 437.857 271.67C437.536 270.758 437.044 270.038 436.382 269.51C435.724 268.983 434.958 268.667 434.084 268.561C433.209 268.456 432.394 268.582 431.636 268.939C430.884 269.297 430.252 269.881 429.741 270.692C429.235 271.504 428.915 272.536 428.781 273.788C428.646 275.04 428.74 276.122 429.061 277.034C429.387 277.946 429.879 278.665 430.537 279.193C431.199 279.721 431.967 280.037 432.842 280.143C433.716 280.248 434.529 280.122 435.282 279.764C436.039 279.407 436.671 278.823 437.177 278.011C437.688 277.2 438.01 276.168 438.145 274.916Z" fill="black"/>
<path d="M459.523 272.511L456.323 286.7L454.677 286.258L449.535 273.059L449.398 273.022L446.886 284.163L445.185 283.705L448.384 269.516L450.031 269.959L455.194 283.193L455.331 283.23L457.849 272.061L459.523 272.511Z" fill="black"/>
<path d="M463.513 289.437L461.811 288.723L471.48 277.039L473.157 277.742L473.337 293.558L471.635 292.844L471.62 279.588L471.515 279.544L463.513 289.437ZM465.995 284.33L472.859 287.209L472.35 288.686L465.486 285.807L465.995 284.33Z" fill="black"/>
<path d="M478.333 296.373L484.437 283.17L485.969 284.04L480.521 295.824L486.401 299.162L485.745 300.58L478.333 296.373Z" fill="black"/>
<path d="M517.662 308.466L518.864 309.753L512.595 317.064C511.948 317.819 511.21 318.321 510.381 318.572C509.559 318.822 508.712 318.809 507.841 318.531C506.972 318.249 506.149 317.692 505.37 316.858C504.591 316.024 504.057 315.129 503.768 314.172C503.482 313.211 503.432 312.264 503.617 311.332C503.809 310.4 504.228 309.557 504.876 308.802L511.145 301.491L512.347 302.778L506.171 309.981C505.708 310.52 505.404 311.114 505.256 311.763C505.112 312.409 505.134 313.063 505.322 313.726C505.516 314.388 505.889 315.016 506.442 315.607C506.995 316.199 507.572 316.589 508.173 316.777C508.777 316.962 509.363 316.958 509.931 316.766C510.504 316.574 511.023 316.208 511.485 315.669L517.662 308.466Z" fill="black"/>
<path d="M531.565 326.293L520.761 336.032L519.755 334.655L523.563 320.609L523.479 320.494L514.996 328.14L513.957 326.718L524.761 316.98L525.767 318.356L521.955 332.444L522.039 332.559L530.543 324.894L531.565 326.293Z" fill="black"/>
<path d="M537.79 336.291L526.045 344.871L525.141 343.36L536.886 334.78L537.79 336.291Z" fill="black"/>
<path d="M542.988 345.618L534.335 355.719L534.41 355.872L546.85 353.532L547.66 355.192L532.789 357.781L531.991 356.147L542.178 343.958L542.988 345.618Z" fill="black"/>
<path d="M537.669 369.174L550.99 363.333L554.03 371.568L552.599 372.196L550.169 365.613L545.668 367.586L547.94 373.743L546.509 374.37L544.237 368.214L539.71 370.199L542.179 376.888L540.748 377.516L537.669 369.174Z" fill="black"/>
<path d="M542.91 384.742L556.826 380.51L558.076 385.263C558.365 386.362 558.416 387.32 558.23 388.139C558.049 388.955 557.681 389.631 557.127 390.166C556.572 390.7 555.885 391.092 555.066 391.341C554.246 391.591 553.474 391.642 552.751 391.496C552.027 391.351 551.392 390.982 550.846 390.392C550.304 389.8 549.889 388.959 549.603 387.87L548.591 384.023L550.113 383.56L551.11 387.352C551.308 388.103 551.576 388.674 551.913 389.066C552.252 389.462 552.648 389.703 553.101 389.788C553.56 389.876 554.068 389.835 554.625 389.665C555.182 389.496 555.641 389.242 556.003 388.905C556.364 388.568 556.597 388.133 556.702 387.602C556.811 387.069 556.766 386.423 556.566 385.663L555.779 382.668L543.358 386.446L542.91 384.742ZM550.902 389.462L545.561 394.826L545.041 392.847L550.397 387.539L550.902 389.462Z" fill="black"/>
<path d="M558.913 407.729C559.608 407.521 560.104 407.083 560.4 406.417C560.696 405.75 560.775 404.981 560.635 404.112C560.534 403.476 560.342 402.938 560.061 402.496C559.78 402.06 559.439 401.74 559.037 401.536C558.636 401.337 558.207 401.277 557.75 401.357C557.367 401.424 557.053 401.572 556.807 401.803C556.566 402.037 556.378 402.315 556.243 402.637C556.112 402.957 556.013 403.287 555.948 403.625C555.887 403.963 555.842 404.271 555.815 404.55L555.657 406.077C555.618 406.468 555.55 406.908 555.45 407.396C555.352 407.889 555.187 408.372 554.956 408.845C554.73 409.321 554.408 409.738 553.991 410.094C553.573 410.451 553.028 410.688 552.357 410.805C551.582 410.94 550.85 410.859 550.16 410.561C549.471 410.268 548.88 409.766 548.387 409.054C547.895 408.347 547.561 407.442 547.385 406.338C547.22 405.31 547.243 404.39 547.454 403.58C547.665 402.774 548.033 402.104 548.556 401.57C549.081 401.042 549.73 400.681 550.505 400.488L550.792 402.283C550.259 402.424 549.84 402.685 549.536 403.065C549.238 403.448 549.042 403.901 548.948 404.422C548.859 404.947 548.861 405.494 548.952 406.065C549.058 406.729 549.261 407.306 549.56 407.797C549.864 408.287 550.234 408.652 550.67 408.893C551.111 409.134 551.593 409.208 552.115 409.117C552.591 409.034 552.957 408.833 553.213 408.514C553.469 408.196 553.655 407.803 553.772 407.335C553.889 406.868 553.977 406.37 554.037 405.84L554.258 403.985C554.4 402.807 554.717 401.838 555.21 401.08C555.702 400.321 556.431 399.857 557.396 399.689C558.199 399.549 558.933 399.644 559.6 399.975C560.272 400.309 560.832 400.817 561.282 401.498C561.736 402.182 562.037 402.983 562.184 403.899C562.332 404.825 562.298 405.677 562.082 406.455C561.871 407.232 561.514 407.88 561.012 408.4C560.511 408.925 559.901 409.262 559.182 409.412L558.913 407.729Z" fill="black"/>
<path d="M563.872 419.877L549.366 420.95L549.226 419.194L563.732 418.121L563.872 419.877Z" fill="black"/>
<path d="M562.894 429.312L564.456 429.351L564.459 440.26L562.897 440.221L562.896 435.647L549.917 435.322L549.916 433.561L562.895 433.886L562.894 429.312Z" fill="black"/>
<path d="M564.135 448.202L563.931 450.209L556.811 453.205L556.793 453.374L563.099 458.405L562.895 460.412L554.972 453.902L549.045 453.003L549.223 451.251L555.15 452.149L564.135 448.202Z" fill="black"/>
<path d="M282.81 438.856L268.356 440.49L268.247 438.732L281.148 437.274L280.728 430.526L282.281 430.35L282.81 438.856Z" fill="black"/>
<path d="M275.444 410.07C276.978 410.095 278.292 410.393 279.386 410.965C280.48 411.536 281.309 412.31 281.875 413.284C282.44 414.259 282.696 415.366 282.644 416.606C282.592 417.845 282.242 418.943 281.595 419.898C280.949 420.853 280.055 421.598 278.914 422.134C277.773 422.669 276.436 422.925 274.902 422.9C273.368 422.875 272.055 422.577 270.961 422.005C269.867 421.434 269.037 420.66 268.472 419.685C267.907 418.711 267.65 417.603 267.703 416.364C267.755 415.125 268.105 414.027 268.751 413.072C269.398 412.117 270.292 411.372 271.432 410.836C272.573 410.301 273.91 410.045 275.444 410.07ZM275.372 411.773C274.113 411.753 273.041 411.946 272.157 412.353C271.273 412.755 270.594 413.31 270.118 414.017C269.643 414.72 269.387 415.511 269.35 416.391C269.313 417.271 269.502 418.071 269.917 418.793C270.332 419.51 270.964 420.086 271.812 420.521C272.661 420.951 273.715 421.176 274.974 421.197C276.234 421.217 277.305 421.026 278.189 420.624C279.073 420.217 279.753 419.662 280.228 418.96C280.703 418.253 280.959 417.459 280.996 416.579C281.034 415.699 280.845 414.901 280.43 414.184C280.015 413.463 279.383 412.887 278.534 412.456C277.686 412.021 276.632 411.794 275.372 411.773Z" fill="black"/>
<path d="M269.297 399.259L282.051 396.85L282.077 396.681L270.626 390.553L270.905 388.727L284.475 396.216L284.201 398.014L269.018 401.084L269.297 399.259Z" fill="black"/>
<path d="M286.783 383.828L272.785 379.873L274.955 371.367L276.458 371.791L274.724 378.591L279.454 379.927L281.075 373.568L282.579 373.993L280.957 380.352L285.714 381.696L287.476 374.787L288.98 375.211L286.783 383.828Z" fill="black"/>
<path d="M291.152 367.893L277.702 362.354L278.294 360.696L290.299 365.639L292.573 359.272L294.018 359.867L291.152 367.893Z" fill="black"/>
<path d="M283.671 346.479L284.535 344.656L292.184 344.333L292.257 344.179L288.064 337.212L288.928 335.389L294.134 344.322L299.362 347.255L298.607 348.847L293.38 345.914L283.671 346.479Z" fill="black"/>
<path d="M302.613 521.347L308.564 508.075L312.286 511.285C313.15 512.03 313.772 512.827 314.152 513.676C314.538 514.524 314.721 515.38 314.701 516.244C314.682 517.108 314.497 517.931 314.146 518.713C313.796 519.495 313.344 520.091 312.792 520.502C312.244 520.915 311.61 521.076 310.891 520.983C310.174 520.886 309.387 520.467 308.53 519.728L305.862 517.428L306.502 516.002L309.126 518.266C309.718 518.776 310.248 519.062 310.717 519.125C311.186 519.188 311.595 519.08 311.944 518.8C312.299 518.519 312.596 518.112 312.834 517.581C313.072 517.05 313.203 516.503 313.226 515.942C313.252 515.384 313.138 514.83 312.882 514.28C312.629 513.725 312.202 513.19 311.604 512.674L309.259 510.651L303.947 522.498L302.613 521.347Z" fill="black"/>
<path d="M330.666 525.364L332.107 526.377L328.706 535.387C328.355 536.317 327.85 537.013 327.191 537.474C326.537 537.934 325.784 538.13 324.932 538.064C324.081 537.993 323.189 537.629 322.256 536.973C321.322 536.317 320.587 535.537 320.051 534.633C319.517 533.725 319.195 532.773 319.085 531.777C318.982 530.779 319.105 529.815 319.456 528.885L322.857 519.874L324.298 520.887L320.947 529.765C320.697 530.429 320.601 531.11 320.661 531.808C320.723 532.502 320.934 533.163 321.295 533.792C321.661 534.419 322.175 534.966 322.837 535.432C323.5 535.897 324.124 536.151 324.711 536.194C325.3 536.232 325.817 536.082 326.263 535.746C326.714 535.407 327.065 534.905 327.316 534.241L330.666 525.364Z" fill="black"/>
<path d="M349.659 536.57L345.394 550.477L343.898 549.66L340.291 534.941L340.166 534.873L336.818 545.792L335.272 544.947L339.536 531.041L341.032 531.858L344.657 546.617L344.781 546.685L348.138 535.74L349.659 536.57Z" fill="black"/>
<path d="M363.113 542.585L364.74 543.26L362.251 553.355C362.029 554.256 361.682 554.956 361.212 555.456C360.742 555.955 360.18 556.248 359.527 556.337C358.874 556.426 358.158 556.308 357.38 555.985C356.645 555.68 356.026 555.268 355.522 554.75C355.019 554.227 354.669 553.636 354.47 552.976C354.271 552.315 354.261 551.624 354.439 550.903L356.039 551.567C355.941 551.967 355.949 552.355 356.063 552.732C356.183 553.106 356.388 553.445 356.68 553.749C356.972 554.052 357.329 554.292 357.754 554.468C358.221 554.662 358.645 554.724 359.024 554.653C359.403 554.583 359.727 554.383 359.996 554.054C360.271 553.722 360.48 553.264 360.624 552.68L363.113 542.585Z" fill="black"/>
<path d="M370.06 560.455L368.29 559.927L376.154 547.168L377.896 547.687L380.27 563.496L378.5 562.969L376.645 549.704L376.536 549.671L370.06 560.455ZM371.785 555.069L378.919 557.195L378.624 558.729L371.49 556.604L371.785 555.069Z" fill="black"/>
<path d="M387.701 565.138L389.646 550.723L394.655 551.604C395.653 551.78 396.452 552.098 397.053 552.56C397.655 553.016 398.076 553.563 398.314 554.201C398.554 554.834 398.626 555.502 398.531 556.206C398.447 556.825 398.269 557.318 397.995 557.683C397.726 558.048 397.398 558.317 397.012 558.49C396.631 558.663 396.228 558.77 395.802 558.81L395.783 558.951C396.218 559.056 396.637 559.288 397.042 559.648C397.447 560.007 397.764 560.476 397.991 561.054C398.219 561.632 398.281 562.301 398.179 563.062C398.081 563.784 397.83 564.405 397.426 564.925C397.022 565.445 396.445 565.812 395.695 566.026C394.945 566.239 394.006 566.247 392.878 566.049L387.701 565.138ZM389.645 563.895L393.087 564.5C394.22 564.7 395.054 564.621 395.589 564.263C396.129 563.902 396.442 563.405 396.528 562.771C396.594 562.283 396.531 561.811 396.339 561.354C396.149 560.893 395.842 560.498 395.418 560.169C394.995 559.835 394.471 559.613 393.847 559.504L390.321 558.883L389.645 563.895ZM390.526 557.363L393.744 557.929C394.266 558.021 394.751 558.001 395.199 557.868C395.651 557.736 396.026 557.504 396.324 557.172C396.626 556.841 396.812 556.422 396.88 555.916C396.965 555.282 396.819 554.706 396.44 554.188C396.062 553.665 395.397 553.32 394.446 553.153L391.172 552.577L390.526 557.363Z" fill="black"/>
<path d="M411.769 563.463C411.705 561.675 411.879 560.016 412.289 558.488C412.703 556.955 413.321 555.531 414.141 554.215L415.615 554.125C415.292 554.614 414.993 555.211 414.72 555.915C414.451 556.614 414.22 557.38 414.027 558.212C413.833 559.039 413.688 559.892 413.592 560.771C413.5 561.649 413.469 562.511 413.499 563.358C413.538 564.485 413.688 565.621 413.946 566.767C414.205 567.913 414.536 568.972 414.94 569.943C415.343 570.914 415.783 571.699 416.259 572.296L414.785 572.385C413.875 571.174 413.16 569.833 412.639 568.361C412.122 566.885 411.832 565.252 411.769 563.463Z" fill="black"/>
<path d="M425.144 553.852L426.262 568.354L424.514 568.57L423.396 554.067L425.144 553.852Z" fill="black"/>
<path d="M444.733 550.389L446.655 564.807L444.986 565.154L435.717 555.446L435.578 555.474L437.087 566.795L435.362 567.153L433.44 552.735L435.109 552.388L444.41 562.119L444.549 562.09L443.037 550.742L444.733 550.389Z" fill="black"/>
<path d="M460.186 561.168L455.91 562.531L452.957 548.288L457.423 546.865C458.767 546.436 459.977 546.354 461.051 546.62C462.125 546.88 463.027 547.46 463.757 548.36C464.486 549.254 465.003 550.439 465.308 551.913C465.616 553.397 465.624 554.756 465.332 555.991C465.038 557.221 464.46 558.28 463.595 559.169C462.73 560.053 461.594 560.719 460.186 561.168ZM457.271 560.466L459.761 559.672C460.907 559.307 461.809 558.777 462.468 558.082C463.128 557.388 463.555 556.562 463.751 555.605C463.947 554.648 463.925 553.59 463.684 552.431C463.446 551.281 463.058 550.349 462.521 549.636C461.982 548.918 461.304 548.452 460.485 548.239C459.666 548.02 458.715 548.084 457.632 548.429L454.952 549.283L457.271 560.466Z" fill="black"/>
<path d="M473.012 541.281L476.745 555.34L475.113 556.002L471.38 541.944L473.012 541.281Z" fill="black"/>
<path d="M486.024 551.498L484.369 552.316L484.671 536.114L486.301 535.309L495.576 546.779L493.92 547.597L486.246 537.875L486.145 537.925L486.024 551.498ZM484.883 545.791L491.556 542.494L492.038 543.981L485.365 547.278L484.883 545.791Z" fill="black"/>
<path d="M503.628 535.384C504.279 537.052 504.677 538.706 504.821 540.348C504.968 541.983 504.898 543.61 504.613 545.229L503.342 545.983C503.465 545.372 503.528 544.672 503.531 543.883C503.539 543.096 503.491 542.266 503.386 541.394C503.28 540.517 503.121 539.642 502.91 538.768C502.702 537.886 502.444 537.053 502.138 536.268C501.728 535.218 501.219 534.209 500.609 533.239C500 532.27 499.356 531.416 498.677 530.678C497.997 529.94 497.349 529.396 496.73 529.046L498.001 528.292C499.206 529.028 500.282 529.979 501.229 531.145C502.178 532.304 502.978 533.717 503.628 535.384Z" fill="black"/>
<defs>
<filter id="filter0_d_8_2" x="315.336" y="308.089" width="51.553" height="212.432" filterUnits="userSpaceOnUse" color-interpolation-filters="sRGB">
<feFlood flood-opacity="0" result="BackgroundImageFix"/>
<feColorMatrix in="SourceAlpha" type="matrix" values="0 0 0 0 0 0 0 0 0 0 0 0 0 0 0 0 0 0 127 0" result="hardAlpha"/>
<feOffset dy="4"/>
<feGaussianBlur stdDeviation="2"/>
<feComposite in2="hardAlpha" operator="out"/>
<feColorMatrix type="matrix" values="0 0 0 0 0 0 0 0 0 0 0 0 0 0 0 0 0 0 0.25 0"/>
<feBlend mode="normal" in2="BackgroundImageFix" result="effect1_dropShadow_8_2"/>
<feBlend mode="normal" in="SourceGraphic" in2="effect1_dropShadow_8_2" result="shape"/>
</filter>
<filter id="filter1_d_8_2" x="346.622" y="303.638" width="120.303" height="228.755" filterUnits="userSpaceOnUse" color-interpolation-filters="sRGB">
<feFlood flood-opacity="0" result="BackgroundImageFix"/>
<feColorMatrix in="SourceAlpha" type="matrix" values="0 0 0 0 0 0 0 0 0 0 0 0 0 0 0 0 0 0 127 0" result="hardAlpha"/>
<feOffset dy="4"/>
<feGaussianBlur stdDeviation="2"/>
<feComposite in2="hardAlpha" operator="out"/>
<feColorMatrix type="matrix" values="0 0 0 0 0 0 0 0 0 0 0 0 0 0 0 0 0 0 0.25 0"/>
<feBlend mode="normal" in2="BackgroundImageFix" result="effect1_dropShadow_8_2"/>
<feBlend mode="normal" in="SourceGraphic" in2="effect1_dropShadow_8_2" result="shape"/>
</filter>
<filter id="filter2_d_8_2" x="370.834" y="381.825" width="166.393" height="161.686" filterUnits="userSpaceOnUse" color-interpolation-filters="sRGB">
<feFlood flood-opacity="0" result="BackgroundImageFix"/>
<feColorMatrix in="SourceAlpha" type="matrix" values="0 0 0 0 0 0 0 0 0 0 0 0 0 0 0 0 0 0 127 0" result="hardAlpha"/>
<feOffset dy="4"/>
<feGaussianBlur stdDeviation="2"/>
<feComposite in2="hardAlpha" operator="out"/>
<feColorMatrix type="matrix" values="0 0 0 0 0 0 0 0 0 0 0 0 0 0 0 0 0 0 0.25 0"/>
<feBlend mode="normal" in2="BackgroundImageFix" result="effect1_dropShadow_8_2"/>
<feBlend mode="normal" in="SourceGraphic" in2="effect1_dropShadow_8_2" result="shape"/>
</filter>
<filter id="filter3_d_8_2" x="396.541" y="477.336" width="128.805" height="73.7632" filterUnits="userSpaceOnUse" color-interpolation-filters="sRGB">
<feFlood flood-opacity="0" result="BackgroundImageFix"/>
<feColorMatrix in="SourceAlpha" type="matrix" values="0 0 0 0 0 0 0 0 0 0 0 0 0 0 0 0 0 0 127 0" result="hardAlpha"/>
<feOffset dy="4"/>
<feGaussianBlur stdDeviation="2"/>
<feComposite in2="hardAlpha" operator="out"/>
<feColorMatrix type="matrix" values="0 0 0 0 0 0 0 0 0 0 0 0 0 0 0 0 0 0 0.25 0"/>
<feBlend mode="normal" in2="BackgroundImageFix" result="effect1_dropShadow_8_2"/>
<feBlend mode="normal" in="SourceGraphic" in2="effect1_dropShadow_8_2" result="shape"/>
</filter>
</defs>
</svg>
